<?xml version="1.0" standalone="no"?><!DOCTYPE svg PUBLIC "-//W3C//DTD SVG 1.1//EN" "http://www.w3.org/Graphics/SVG/1.1/DTD/svg11.dtd"><svg t="1657874923413" class="icon" viewBox="0 0 1024 1024" version="1.1" xmlns="http://www.w3.org/2000/svg" p-id="3223" xmlns:xlink="http://www.w3.org/1999/xlink" width="128" height="128"><defs><style type="text/css">@font-face { font-family: feedback-iconfont; src: url("//at.alicdn.com/t/font_1031158_u69w8yhxdu.woff2?t=1630033759944") format("woff2"), url("//at.alicdn.com/t/font_1031158_u69w8yhxdu.woff?t=1630033759944") format("woff"), url("//at.alicdn.com/t/font_1031158_u69w8yhxdu.ttf?t=1630033759944") format("truetype"); }
</style></defs><path d="M176.256 576.405333l2.005333-0.256L181.333333 576a32.362667 32.362667 0 0 1 8.405334 1.109333l2.517333 0.789334 1.066667 0.426666c9.130667 3.648 16.448 11.456 19.093333 21.696a309.461333 309.461333 0 0 0 599.168 0 32 32 0 1 1 61.994667 15.957334 373.461333 373.461333 0 0 1-660.266667 130.794666L213.333333 778.496a32 32 0 0 1-63.850666 3.072L149.333333 778.496V608a32 32 0 0 1 26.922667-31.594667zM512 149.333333c120.746667 0 229.973333 57.813333 298.666667 149.226667V266.666667a32 32 0 0 1 63.850666-3.072L874.666667 266.666667v170.496c0 4.394667-0.896 8.576-2.496 12.394666l-1.066667 2.261334a32 32 0 0 1-59.52-6.506667 309.461333 309.461333 0 0 0-599.168 0 32 32 0 0 1-61.994667-15.936A373.461333 373.461333 0 0 1 512 149.333333z" p-id="3224"></path><path d="M646.357333 334.826667l2.282667 2.069333a32 32 0 0 1 2.069333 42.986667l-2.069333 2.282666L582.784 448h72.277333a32 32 0 0 1 3.072 63.850667l-3.072 0.149333h-103.552v56.469333h103.552a32 32 0 0 1 3.072 63.850667l-3.072 0.149333h-103.552v88.469334a32 32 0 0 1-63.829333 3.093333l-0.149333-3.093333-0.021334-88.469334H384a32 32 0 0 1-3.072-63.850666l3.072-0.149334h103.509333V512H384a32 32 0 0 1-3.072-63.850667L384 448h72.256l-65.834667-65.834667a32 32 0 0 1 42.965334-47.338666l2.282666 2.069333 83.84 83.861333 83.882667-83.84a32 32 0 0 1 42.965333-2.090666z" p-id="3225"></path></svg>