<?xml version="1.0" standalone="no"?><!DOCTYPE svg PUBLIC "-//W3C//DTD SVG 1.1//EN" "http://www.w3.org/Graphics/SVG/1.1/DTD/svg11.dtd"><svg t="1657874888216" class="icon" viewBox="0 0 1024 1024" version="1.1" xmlns="http://www.w3.org/2000/svg" p-id="2710" xmlns:xlink="http://www.w3.org/1999/xlink" width="128" height="128"><defs><style type="text/css">@font-face { font-family: feedback-iconfont; src: url("//at.alicdn.com/t/font_1031158_u69w8yhxdu.woff2?t=1630033759944") format("woff2"), url("//at.alicdn.com/t/font_1031158_u69w8yhxdu.woff?t=1630033759944") format("woff"), url("//at.alicdn.com/t/font_1031158_u69w8yhxdu.ttf?t=1630033759944") format("truetype"); }
</style></defs><path d="M421.205333 789.354667a96.042667 96.042667 0 0 1-181.077333 0L202.666667 789.333333a74.666667 74.666667 0 0 1-74.56-70.570666L128 714.666667v-190.357334a117.333333 117.333333 0 0 1 27.626667-75.626666l3.925333-4.437334 101.077333-108.309333a117.333333 117.333333 0 0 1 80.064-37.12l5.717334-0.149333H448v-32a74.666667 74.666667 0 0 1 70.570667-74.56L522.666667 192h234.666666a160 160 0 0 1 159.914667 154.816L917.333333 352v277.333333a160 160 0 0 1-154.816 159.914667L757.333333 789.333333l-16.128 0.021334a96.042667 96.042667 0 0 1-181.077333 0h-138.922667zM650.666667 725.333333l-3.072 0.149334a32 32 0 1 0 6.144 0L650.666667 725.333333z m-320 0l-3.072 0.149334a32 32 0 1 0 6.144 0L330.666667 725.333333z m426.666666-469.333333h-234.666666a10.666667 10.666667 0 0 0-10.496 8.746667L512 266.666667V725.333333h48.149333l1.450667-3.882666 1.450667-3.413334 2.496-5.12 2.56-4.629333 2.602666-4.096 4.352-6.016 2.986667-3.648 2.666667-2.944 2.688-2.752 3.264-3.050667 2.517333-2.176a96.426667 96.426667 0 0 1 6.058667-4.650666l3.072-2.090667 4.885333-2.986667 3.029333-1.664 5.056-2.453333 4.992-2.090667 4.224-1.493333 2.944-0.917333 4.437334-1.194667 4.266666-0.938667 4.650667-0.789333a96.810667 96.810667 0 0 1 22.037333-0.64l2.432 0.213333 4.138667 0.554667 5.141333 0.938667 4.608 1.066666 5.376 1.6 4.757334 1.706667 6.272 2.688 5.653333 2.901333 3.093333 1.792 3.264 2.069334 4.778667 3.370666 6.101333 4.992 2.944 2.730667 3.541334 3.605333 1.685333 1.856 2.069333 2.432 4.117334 5.333334 2.304 3.370666 2.090666 3.370667 1.749334 3.072 2.368 4.608 0.725333 1.536c1.152 2.56 2.218667 5.162667 3.157333 7.829333h16.128a96 96 0 0 0 95.573334-86.890666l0.32-4.586667L853.333333 629.333333v-277.333333a96 96 0 0 0-91.477333-95.893333L757.333333 256zM335.189333 661.44l3.669334 0.234667 2.432 0.234666 4.117333 0.554667 5.141333 0.938667 4.608 1.066666 5.376 1.6 3.584 1.258667 6.464 2.666667 3.968 1.92 5.76 3.242666 3.264 2.069334 4.778667 3.370666 6.101333 4.992 2.944 2.730667 2.602667 2.624 2.624 2.837333 2.069333 2.432 4.117334 5.333334 2.304 3.370666 2.090666 3.370667 1.749334 3.072 2.368 4.608 0.725333 1.536c1.088 2.410667 2.090667 4.864 2.986667 7.381333l0.128 0.448H448V362.666667h-101.589333a53.333333 53.333333 0 0 0-36.138667 14.122666l-2.837333 2.816-101.098667 108.309334a53.333333 53.333333 0 0 0-14.144 31.914666l-0.192 4.48V714.666667a10.666667 10.666667 0 0 0 8.746667 10.496L202.666667 725.333333h37.482666l0.149334-0.448c1.258667-3.498667 2.709333-6.912 4.352-10.24l1.984-3.754666 3.306666-5.546667 2.602667-3.797333 2.517333-3.370667 2.986667-3.648 2.666667-2.944 2.688-2.752 3.264-3.050667 2.517333-2.176a96.426667 96.426667 0 0 1 6.058667-4.650666l3.072-2.090667 4.48-2.773333 3.626666-1.984 4.864-2.346667 4.992-2.090667 4.224-1.493333 5.674667-1.706667 5.973333-1.344 4.650667-0.789333c4.522667-0.661333 9.173333-1.002667 13.866667-1.002667l4.522666 0.106667z m18.112-249.322667a32 32 0 0 1 31.850667 28.928l0.149333 3.072v90.517334l-0.170666 3.264a32 32 0 0 1-28.757334 28.586666l-3.072 0.149334h-90.517333l-3.264-0.170667a32 32 0 0 1 0.192-63.68l3.072-0.149333h58.517333v-58.517334l0.149334-3.264a32 32 0 0 1 31.850666-28.736z" p-id="2711"></path></svg>