<?xml version="1.0" standalone="no"?><!DOCTYPE svg PUBLIC "-//W3C//DTD SVG 1.1//EN" "http://www.w3.org/Graphics/SVG/1.1/DTD/svg11.dtd"><svg t="1657874904972" class="icon" viewBox="0 0 1024 1024" version="1.1" xmlns="http://www.w3.org/2000/svg" p-id="3052" xmlns:xlink="http://www.w3.org/1999/xlink" width="128" height="128"><defs><style type="text/css">@font-face { font-family: feedback-iconfont; src: url("//at.alicdn.com/t/font_1031158_u69w8yhxdu.woff2?t=1630033759944") format("woff2"), url("//at.alicdn.com/t/font_1031158_u69w8yhxdu.woff?t=1630033759944") format("woff"), url("//at.alicdn.com/t/font_1031158_u69w8yhxdu.ttf?t=1630033759944") format("truetype"); }
</style></defs><path d="M679.488 181.12a74.666667 74.666667 0 0 1 2.986667 16.106667l0.213333 5.461333v55.637333h53.333333a160 160 0 0 1 159.914667 154.837334l0.064 5.184v298.666666a160 160 0 0 1-154.816 159.914667l-5.184 0.085333h-426.666667a160 160 0 0 1-159.914666-154.837333L149.333333 717.013333v-426.666666c0-0.597333 0.021333-1.194667 0.064-1.770667a32 32 0 0 1 19.797334-31.338667l2.901333-1.024L586.453333 131.2a74.666667 74.666667 0 0 1 93.056 49.92z m56.533333 141.226667H213.333333v394.666666a96 96 0 0 0 91.477334 95.893334l4.501333 0.106666h426.666667a96 96 0 0 0 95.893333-91.477333L832 717.013333v-35.434666h-97.706667a115.626667 115.626667 0 0 1-115.52-110.954667L618.666667 565.973333a115.626667 115.626667 0 0 1 110.976-115.541333l4.650666-0.085333 97.706667-0.021334v-32a96 96 0 0 0-91.477333-95.893333l-4.522667-0.106667z m96 192h-97.706666a51.626667 51.626667 0 0 0-51.2 44.736l-0.32 3.498666-0.128 3.392a51.626667 51.626667 0 0 0 48.234666 51.52l3.413334 0.106667H832v-103.253333zM606.784 192.064l-1.877333 0.384-218.325334 65.856H618.666667V202.688a10.666667 10.666667 0 0 0-11.861334-10.602667z" p-id="3053"></path></svg>