<?xml version="1.0" standalone="no"?><!DOCTYPE svg PUBLIC "-//W3C//DTD SVG 1.1//EN" "http://www.w3.org/Graphics/SVG/1.1/DTD/svg11.dtd"><svg t="1657874877825" class="icon" viewBox="0 0 1024 1024" version="1.1" xmlns="http://www.w3.org/2000/svg" p-id="2541" xmlns:xlink="http://www.w3.org/1999/xlink" width="128" height="128"><defs><style type="text/css">@font-face { font-family: feedback-iconfont; src: url("//at.alicdn.com/t/font_1031158_u69w8yhxdu.woff2?t=1630033759944") format("woff2"), url("//at.alicdn.com/t/font_1031158_u69w8yhxdu.woff?t=1630033759944") format("woff"), url("//at.alicdn.com/t/font_1031158_u69w8yhxdu.ttf?t=1630033759944") format("truetype"); }
</style></defs><path d="M896.042667 736a160 160 0 0 1-154.837334 159.914667l-5.184 0.085333h-426.666666a160 160 0 0 1-159.914667-154.816l-0.085333-5.184V393.322667l0.170666-1.962667c0.213333-1.898667 0.576-3.818667 1.130667-5.717333l0.768-2.261334 64.106667-160.298666a117.333333 117.333333 0 0 1 103.829333-73.642667L324.48 149.333333h396.437333a117.333333 117.333333 0 0 1 106.944 69.034667l2.005334 4.714667 63.786666 159.424 0.789334 2.176 0.810666 2.922666 0.32 1.706667c0.256 1.344 0.405333 2.688 0.469334 4.010667V736zM832 426.666667h-618.666667v309.333333a96 96 0 0 0 86.890667 95.573333l4.608 0.32 4.501333 0.106667h426.666667a96 96 0 0 0 95.914667-91.477333L832 736V426.666667z m-235.648 91.882666l2.282667 2.069334 75.434666 75.413333a32 32 0 0 1 2.069334 42.986667l-2.069334 2.282666-75.434666 75.413334a32 32 0 0 1-47.317334-42.965334l2.069334-2.282666 20.757333-20.8h-200.810667a32 32 0 0 1-3.072-63.850667l3.072-0.149333h200.832l-20.778666-20.8a32 32 0 0 1-2.069334-42.965334l2.069334-2.282666a32 32 0 0 1 42.965333-2.069334zM720.917333 213.333333H324.48a53.333333 53.333333 0 0 0-48 30.016l-1.536 3.52L228.608 362.666667h588.16l-46.314667-115.797334a53.333333 53.333333 0 0 0-41.941333-33.002666l-3.754667-0.405334-3.84-0.128z" p-id="2542"></path></svg>