<?xml version="1.0" standalone="no"?><!DOCTYPE svg PUBLIC "-//W3C//DTD SVG 1.1//EN" "http://www.w3.org/Graphics/SVG/1.1/DTD/svg11.dtd"><svg t="1657874897700" class="icon" viewBox="0 0 1024 1024" version="1.1" xmlns="http://www.w3.org/2000/svg" p-id="2881" xmlns:xlink="http://www.w3.org/1999/xlink" width="128" height="128"><defs><style type="text/css">@font-face { font-family: feedback-iconfont; src: url("//at.alicdn.com/t/font_1031158_u69w8yhxdu.woff2?t=1630033759944") format("woff2"), url("//at.alicdn.com/t/font_1031158_u69w8yhxdu.woff?t=1630033759944") format("woff"), url("//at.alicdn.com/t/font_1031158_u69w8yhxdu.ttf?t=1630033759944") format("truetype"); }
</style></defs><path d="M736 149.333333a160 160 0 0 1 159.914667 154.816L896 309.333333v341.333334a160 160 0 0 1-154.816 159.914666L736 810.666667h-79.424l-50.944 50.986666a117.333333 117.333333 0 0 1-157.930667 7.296l-4.117333-3.605333-3.882667-3.712L388.757333 810.666667H309.333333a160 160 0 0 1-159.658666-149.589334l-0.256-5.226666L149.333333 650.666667v-341.333334a160 160 0 0 1 154.816-159.914666L309.333333 149.333333h426.666667z m0 64h-426.666667a96 96 0 0 0-95.893333 91.477334L213.333333 309.333333v341.333334a96 96 0 0 0 91.477334 95.893333L309.333333 746.666667h92.672a32 32 0 0 1 20.266667 7.253333l2.346667 2.133333 60.330666 60.330667a53.333333 53.333333 0 0 0 72.64 2.602667l2.773334-2.602667 60.373333-60.352a32 32 0 0 1 19.456-9.216l3.157333-0.149333H736a96 96 0 0 0 95.893333-91.477334L832 650.666667v-341.333334a96 96 0 0 0-91.477333-95.893333L736 213.333333zM362.666667 437.333333a53.333333 53.333333 0 1 1 0 106.666667 53.333333 53.333333 0 0 1 0-106.666667z m160 0a53.333333 53.333333 0 1 1 0 106.666667 53.333333 53.333333 0 0 1 0-106.666667z m160 0a53.333333 53.333333 0 1 1 0 106.666667 53.333333 53.333333 0 0 1 0-106.666667z" p-id="2882"></path></svg>